<svg width="24" height="24" viewBox="0 0 24 24" fill="none" xmlns="http://www.w3.org/2000/svg">
<path d="M12 24C18.6274 24 24 18.6274 24 12C24 5.37258 18.6274 0 12 0C5.37258 0 0 5.37258 0 12C0 18.6274 5.37258 24 12 24Z" fill="#699635"/>
<path d="M11.8804 9.8799C11.8404 9.5199 12.0404 9.1599 12.4004 9.2399C12.6804 9.2799 13.0004 9.5599 12.8404 9.8399C12.6004 10.2799 11.9604 10.2799 11.5604 10.5199C11.6004 10.7599 12.7604 10.4799 12.9604 10.4799C13.1604 10.4799 13.3604 10.5599 13.2404 10.7999C13.1204 11.0399 12.7204 11.0399 12.4804 11.0799C12.2404 11.1199 11.8404 11.1199 11.7204 11.3199C11.4804 11.6399 11.9604 11.6799 12.1204 11.7599C12.5204 11.9599 11.8804 12.1599 11.7204 12.1199C11.1204 11.9999 11.0004 11.6799 10.6404 11.2799C10.2804 11.7599 9.16036 12.8399 8.92036 11.7199C8.52036 11.8799 8.12036 12.0799 7.68036 12.1199C7.88036 11.8399 8.28036 11.7199 8.60036 11.5599C9.00036 11.3599 9.00036 10.9999 9.24036 10.6799C9.32036 10.7999 9.24036 10.9599 9.28036 11.1199C9.60036 10.9599 10.0004 10.6399 9.84036 10.2399C9.84036 10.1999 9.36036 9.2399 9.76036 9.3999C10.1204 9.5599 10.0004 9.9199 10.0804 10.1999C10.2004 10.7199 9.96036 10.9999 9.56036 11.3199C9.40036 11.4399 8.96036 11.9199 9.48036 11.9199C9.84036 11.9199 10.1604 11.5199 10.3604 11.2799C10.6004 10.9599 10.5204 10.6399 10.3604 10.2799C10.2404 9.9999 9.96036 9.3999 10.3204 9.1999C10.6004 9.6399 10.7204 10.1599 10.8404 10.6799C10.9204 11.1199 11.0004 11.5599 11.4804 11.6799C11.4404 11.3599 11.6404 11.1199 11.9204 10.9999C11.7204 10.8399 10.6004 11.0399 11.0404 10.4399C11.0804 10.1599 11.8804 10.0399 11.8804 9.8799Z" fill="white"/>
<path d="M5.76002 11.3602C5.96002 11.9202 6.64002 11.7202 7.04002 11.5602C7.68002 11.2402 7.68002 10.7602 7.68002 10.1202C7.44002 10.2402 7.48002 10.6802 7.40002 10.8802C7.24002 11.2002 6.72002 11.4802 6.36002 11.4402C5.84002 11.3602 5.60002 10.4802 6.00002 10.1602C6.08002 10.4402 5.88002 11.0402 6.36002 11.0802C6.72002 11.1202 7.44002 10.6802 7.32002 10.2802C6.84002 10.4402 6.56002 10.2802 6.72002 9.76019C6.84002 9.28019 7.32002 9.64019 7.52002 9.88019C8.28002 9.44019 6.92002 7.76019 7.72002 7.32019C7.88002 7.60019 8.12002 7.96019 7.92002 8.24019C7.68002 8.56019 7.92002 9.24019 7.96002 9.60019C8.36002 9.24019 8.04002 9.88019 8.36002 9.92019C8.56002 9.96019 8.64002 9.44019 8.76002 9.44019C8.80002 9.56019 8.80002 9.92019 9.00002 9.88019C9.24002 9.80019 8.96002 9.48019 9.20002 9.40019C9.28002 9.60019 9.24002 10.2002 8.96002 10.1602C8.72002 10.1202 8.76002 9.96019 8.48002 10.1202C8.24002 10.2402 8.16002 10.1202 8.00002 10.0002C7.96002 10.4802 8.12002 11.0002 7.84002 11.4402C7.60002 11.8002 7.12002 12.0002 6.72002 12.0802C5.68002 12.2802 5.40002 11.2402 5.76002 10.4002C5.84002 10.6402 5.68002 11.0802 5.76002 11.3602Z" fill="white"/>
<path d="M15.5202 11.5602C15.7202 12.0802 16.1202 11.0002 16.2402 10.8402C16.5602 10.3602 17.0402 11.6002 17.2402 10.8002C17.3602 10.2802 17.2002 9.76019 17.1602 9.24019C17.1202 8.88019 17.0002 8.56019 16.7602 8.28019C16.5202 7.96019 16.2802 7.68019 16.4002 7.28019C16.8002 7.44019 16.8002 7.76019 17.0002 8.08019C17.0402 7.84019 16.8802 7.52019 17.0402 7.32019C17.2402 7.04019 17.4002 7.80019 17.4002 7.88019C17.4402 8.08019 17.2402 8.16019 17.3602 8.48019C17.4402 8.72019 17.6002 8.96019 17.7602 9.16019C17.7202 8.92019 17.3602 7.28019 17.7602 7.28019C17.8802 7.28019 18.0002 7.76019 18.0002 7.84019C18.0802 8.08019 17.9202 8.28019 17.9202 8.56019C17.8802 9.04019 17.9602 9.60019 18.2802 9.96019C18.4402 10.1602 19.0402 10.8802 18.7202 11.1202C18.4802 10.8402 18.3202 10.5202 18.1202 10.2402C18.1202 10.5602 18.2002 10.9202 18.0402 11.1602C17.8802 11.0802 17.9602 10.5602 17.9602 10.4402C17.9602 10.0002 17.6802 9.64019 17.4402 9.28019C17.3602 9.88019 17.8402 11.0002 17.2802 11.4402C16.9202 11.7602 16.4402 11.0402 16.3202 11.3202C16.2002 11.5202 15.9202 12.2402 15.6002 12.1602C15.2002 12.0802 14.9202 10.9602 15.3602 10.8402C15.4002 11.0402 15.4002 11.3202 15.5202 11.5602Z" fill="white"/>
<path d="M6.96025 8.83984C7.24025 8.87984 6.96025 7.91984 6.96025 7.75984C7.00025 7.59984 7.12025 7.51984 7.20025 7.67984C7.32025 7.91984 7.32025 8.19984 7.36025 8.43984C7.36025 8.63984 7.40025 8.87984 7.24025 9.03984C7.00025 9.27984 6.68025 9.15984 6.56025 8.83984C6.00025 9.31984 6.72025 10.1598 6.24025 10.6398C6.16025 10.1998 6.24025 9.71984 6.08025 9.31984C6.00025 9.11984 5.64025 9.19984 5.60025 8.83984C5.60025 8.67984 5.72025 8.23984 5.56025 8.11984C5.48025 8.27984 5.40025 9.51984 5.00025 9.15984C4.68025 8.91984 4.76025 8.11984 4.88025 7.79984C5.12025 7.91984 4.84025 8.79984 5.16025 8.83984C5.32025 8.87984 5.36025 8.19984 5.40025 8.07984C5.52025 7.87984 5.92025 7.31984 5.84025 7.87984C5.80025 8.11984 5.60025 8.87984 6.08025 8.83984C6.04025 8.43984 6.00025 8.03984 5.92025 7.63984C5.88025 7.43984 6.00025 7.03984 6.16025 7.39984C6.28025 7.63984 6.20025 7.75984 6.16025 7.99984C6.12025 8.27984 6.24025 8.55984 6.28025 8.79984C6.52025 8.59984 6.20025 7.83984 6.40025 7.51984C6.88025 7.79984 6.36025 8.75984 6.96025 8.83984Z" fill="white"/>
<path d="M12.1201 8.91987C11.9201 9.19987 11.5601 8.95987 11.4001 8.75987C11.2001 8.99987 10.8001 9.39987 10.4801 9.07987C10.2401 8.83987 10.5201 8.39987 10.3201 8.19987C10.2001 8.39987 10.0001 9.35987 9.64005 8.91987C9.44005 8.67987 9.16005 7.83987 9.60005 7.63987C9.56005 7.95987 9.48005 8.31987 9.68005 8.59987C9.88005 8.87987 10.0801 8.15987 10.1601 7.99987C10.2801 7.71987 10.6801 7.23987 10.6001 7.83987C10.5601 8.07987 10.4801 8.63987 10.7201 8.79987C10.8801 8.91987 11.0801 8.71987 11.1601 8.59987C11.3201 8.39987 11.2401 8.07987 11.2001 7.83987C11.1601 7.63987 11.0801 7.39987 11.2001 7.19987C11.3601 6.95987 11.4801 7.51987 11.4801 7.63987C11.4801 7.75987 11.6401 8.99987 11.9201 8.59987C12.2001 8.23987 11.4401 7.43987 11.9601 7.23987C12.1601 7.15987 12.5201 7.95987 12.1201 7.71987C12.2401 8.07987 12.4001 8.59987 12.1201 8.91987Z" fill="white"/>
<path d="M13.6402 9.39987C13.6802 9.91987 14.1202 11.3599 13.5202 11.6799C13.4402 11.5199 13.5202 11.2799 13.5602 11.0799C13.6002 10.7199 13.5202 10.3599 13.4802 10.0399C13.4002 9.27987 13.3202 8.71987 12.8002 8.11987C12.6802 7.95987 12.4802 7.83987 12.4402 7.59987C12.4402 7.51987 12.4002 7.15987 12.5602 7.23987C12.6802 7.27987 13.3602 7.87987 13.0002 7.87987C13.0402 7.95987 13.2002 8.27987 13.2802 8.27987C13.2802 8.07987 13.0402 7.47987 13.2802 7.35987C13.4802 7.23987 13.7202 7.99987 13.6402 8.15987C13.5602 8.35987 13.5602 8.47987 13.6402 8.75987C13.7202 9.07987 13.9202 9.35987 14.0802 9.63987C14.3202 10.0399 14.8002 10.5999 14.6802 11.1199C14.4402 10.9999 14.2802 10.4399 14.1602 10.1999C14.0802 9.99987 14.0002 9.79987 13.8802 9.63987C13.8402 9.59987 13.6002 9.27987 13.6402 9.47987V9.39987Z" fill="white"/>
<path d="M19.2003 10.1602C19.2403 11.0002 18.9603 12.0802 17.9203 12.0802C17.9203 11.8402 18.4403 11.6002 18.6003 11.4802C19.0003 11.1602 18.9603 10.5602 18.9203 10.1202C18.8803 9.5202 18.8403 8.9202 18.7203 8.3202C18.6803 7.9602 18.4803 7.4402 18.8003 7.2002C19.0003 7.3602 19.2803 7.8002 19.1603 7.9602C18.9603 8.2002 19.1603 10.0002 19.2003 10.1602Z" fill="white"/>
<path d="M14.0803 11.96C15.1203 11.36 14.8003 10.08 14.7203 9.08001C14.6803 8.80001 14.6803 8.52001 14.6403 8.24001C14.6403 8.04001 14.4803 7.76001 14.5603 7.56001C14.7603 7.04001 14.9203 7.52001 14.9603 7.84001C15.0003 8.04001 14.8403 8.08001 14.8803 8.24001C14.9203 8.56001 14.9203 8.88001 14.9603 9.20001C15.0003 9.72001 15.0803 10.24 15.0403 10.72C14.9603 11.48 14.5603 12.32 13.6403 12.16C13.6803 12.08 13.9603 12.04 14.0803 11.96Z" fill="white"/>
<path d="M15.7602 9.96014C15.8002 10.3601 15.9602 11.0801 15.7602 11.4401C15.6002 11.6801 15.6002 11.2801 15.5602 11.2401C15.5202 10.9201 15.5202 10.6001 15.5202 10.2401C15.4402 9.36014 15.1602 8.48014 15.1602 7.64014C15.1602 6.56014 16.0802 8.24014 15.5602 8.16014C15.6002 8.76014 15.6802 9.36014 15.7602 9.96014Z" fill="white"/>
<path d="M9.24011 7.92028C9.32011 8.12028 8.32011 8.64028 8.20011 8.64028C8.16011 8.44028 8.64011 8.16028 8.76011 8.08028C8.88011 7.96028 8.96011 7.96028 8.92011 7.80028C8.84011 7.64028 8.88011 7.36028 9.08011 7.28028C9.48011 7.16028 9.20011 7.76028 9.24011 7.92028Z" fill="white"/>
<path d="M5.12031 11.4802C5.12031 11.8002 5.24031 11.6402 5.40031 11.5602C5.48031 11.7202 5.28031 12.1602 5.08031 11.9602C4.80031 11.6802 5.04031 11.0402 5.16031 10.7602C5.24031 10.9602 5.08031 11.2802 5.12031 11.4802Z" fill="white"/>
<path d="M16.4002 9.0002C16.4402 8.8402 16.3202 8.6802 16.4402 8.5202C16.6002 8.3202 16.7602 8.5602 16.6802 8.6402C16.6002 8.7202 16.4802 8.5602 16.4802 8.8002C16.4802 8.9202 16.5602 9.1602 16.4402 9.2802C16.3602 9.2402 16.0002 8.7202 16.0402 8.6402C16.2002 8.4802 16.3602 8.9602 16.4002 9.0002Z" fill="white"/>
<path d="M5.95998 9.6802C5.87998 9.8402 4.95998 10.3602 4.91998 10.2402C4.91998 10.1202 6.07998 9.4402 5.95998 9.6802Z" fill="white"/>
<path d="M12.7602 11.72C12.6402 12.08 13.1602 11.76 13.2802 11.72C13.1202 12 12.5602 12.24 12.6402 11.72C12.6002 11.72 12.5202 11.76 12.4802 11.76C12.4002 11.68 12.8802 11.36 12.7602 11.72Z" fill="white"/>
<path d="M17.1203 11.5998C17.2403 11.5998 17.4403 11.9598 17.3203 12.0398C17.2403 12.1198 16.8803 12.1598 17.0803 11.9998C17.3203 11.7598 17.1203 11.5998 17.1203 11.5998Z" fill="white"/>
<path d="M11.4802 9.56015C11.5202 9.48015 11.5202 9.36015 11.5602 9.28015C11.9602 9.60015 10.9202 10.1202 11.1202 9.36015C11.2002 9.44015 11.2002 9.56015 11.2802 9.60015C11.2802 9.52015 11.3202 9.40015 11.3202 9.32015C11.4002 9.40015 11.4002 9.52015 11.4802 9.56015Z" fill="white"/>
<path d="M16.16 10.0803C16.04 9.92027 16.76 9.48027 16.88 9.40027C16.96 9.52027 16.4 9.96027 16.16 10.0803Z" fill="white"/>
<path d="M18.4002 8.47991C18.3202 8.23991 18.0802 7.75991 18.3202 7.55991C18.4802 7.67991 18.5602 8.27991 18.4002 8.47991Z" fill="white"/>
<path d="M14.0402 7.67987C14.0002 7.59987 13.8802 7.51987 13.8802 7.39987C13.9202 7.23987 14.0002 7.27987 14.0802 7.35987C14.2002 7.51987 14.2802 7.95987 14.0802 8.07987C14.0802 7.95987 14.1202 7.79987 14.0402 7.67987Z" fill="white"/>
<path d="M9.16026 8.76024C9.16026 9.00024 8.76026 9.24024 8.72026 8.92024C8.68026 8.80024 8.88026 8.36024 8.96026 8.48024C8.80026 8.84024 8.80026 8.96024 9.16026 8.76024Z" fill="white"/>
<path d="M14.1599 8.31998C14.3199 8.71998 14.2399 8.35998 14.3999 8.27998C14.6799 8.79998 13.7999 8.67998 13.9999 8.35998C14.0399 8.39998 14.0799 8.47998 14.0799 8.51998C14.1199 8.47998 14.1199 8.39998 14.1599 8.31998Z" fill="white"/>
<path d="M16.7201 10.1602C16.5201 10.0002 16.7601 9.80016 16.8801 10.0002C16.9601 10.1202 16.9601 10.4402 16.8001 10.5202C16.8001 10.4002 16.8401 10.2402 16.7201 10.1602Z" fill="white"/>
<path d="M8.52019 11.04C8.52019 10.96 8.48019 10.36 8.60019 10.44C8.76019 10.52 8.72019 10.96 8.52019 11.04Z" fill="white"/>
<path d="M6.84016 7.27994C6.88016 7.39994 6.92016 7.55994 7.00016 7.35994C7.32016 7.71994 6.20016 7.59994 6.60016 7.23994C6.60016 7.27994 6.68016 7.51994 6.84016 7.27994Z" fill="white"/>
<path d="M10.9203 8.16019C10.9203 8.00019 10.6803 7.32019 10.8803 7.32019C11.1203 7.36019 11.0803 7.96019 10.9203 8.16019Z" fill="white"/>
<path d="M5.32011 7.80002C5.20011 7.76002 5.40011 7.56002 5.32011 7.40002C5.24011 7.44002 5.16011 7.32002 5.24011 7.24002C5.56011 7.00002 5.44011 7.80002 5.32011 7.80002Z" fill="white"/>
<path d="M15.6802 15.92L15.5202 15.44L15.3602 15.92H6.60022C6.60022 15.92 6.68022 16.64 7.56022 16.64H15.3202V17.2H17.4402V15.92H15.6802ZM17.0402 16.88H15.6002V16.48H17.0402V16.88Z" fill="white"/>
</svg>
